<svg width="160" height="160" viewBox="0 0 160 160" fill="none" xmlns="http://www.w3.org/2000/svg">
<circle cx="80" cy="80" r="80" fill="white"/>
<path d="M30.1704 69.8711C30.3579 70.0586 30.6122 70.1639 30.8774 70.1639C31.1425 70.1639 31.3968 70.0586 31.5844 69.8711L32.3513 69.1041L33.1181 69.8711C33.2103 69.9666 33.3207 70.0428 33.4427 70.0952C33.5647 70.1476 33.6959 70.1752 33.8287 70.1763C33.9615 70.1775 34.0931 70.1521 34.216 70.1019C34.3389 70.0516 34.4506 69.9773 34.5445 69.8834C34.6383 69.7895 34.7126 69.6778 34.7629 69.5549C34.8131 69.432 34.8384 69.3004 34.8373 69.1676C34.8361 69.0348 34.8085 68.9036 34.7561 68.7816C34.7037 68.6596 34.6275 68.5493 34.532 68.457L33.765 67.6899L34.532 66.9227C34.7148 66.7342 34.8161 66.4814 34.8141 66.2188C34.8121 65.9563 34.7069 65.705 34.5212 65.5193C34.3356 65.3337 34.0843 65.2285 33.8217 65.2265C33.5591 65.2245 33.3063 65.3259 33.1179 65.5087L32.3511 66.2756L31.5842 65.5087C31.4919 65.4132 31.3816 65.337 31.2596 65.2846C31.1376 65.2322 31.0063 65.2046 30.8736 65.2035C30.7408 65.2023 30.6091 65.2276 30.4862 65.2779C30.3633 65.3282 30.2517 65.4024 30.1578 65.4963C30.0639 65.5902 29.9896 65.7019 29.9393 65.8248C29.8891 65.9477 29.8638 66.0793 29.8649 66.2121C29.8661 66.3449 29.8936 66.4761 29.9461 66.5981C29.9985 66.7201 30.0746 66.8305 30.1702 66.9227L30.9371 67.6898L30.1702 68.4569C29.9827 68.6445 29.8773 68.8988 29.8774 69.1641C29.8774 69.4293 29.9828 69.6836 30.1704 69.8711Z" fill="black"/>
<path d="M82.832 105.053C82.2387 105.053 81.6587 105.229 81.1653 105.558C80.672 105.888 80.2875 106.356 80.0604 106.905C79.8333 107.453 79.7739 108.056 79.8897 108.638C80.0054 109.22 80.2912 109.754 80.7107 110.174C81.1303 110.594 81.6648 110.879 82.2468 110.995C82.8287 111.111 83.4319 111.051 83.9801 110.824C84.5283 110.597 84.9968 110.213 85.3264 109.719C85.6561 109.226 85.832 108.646 85.832 108.053C85.8312 107.257 85.5148 106.495 84.9524 105.932C84.39 105.37 83.6274 105.054 82.832 105.053ZM82.832 109.053C82.6343 109.053 82.4409 108.994 82.2765 108.884C82.112 108.774 81.9838 108.618 81.9082 108.435C81.8325 108.253 81.8127 108.052 81.8512 107.858C81.8898 107.664 81.9851 107.485 82.1249 107.346C82.2648 107.206 82.443 107.111 82.6369 107.072C82.8309 107.033 83.032 107.053 83.2147 107.129C83.3974 107.205 83.5536 107.333 83.6635 107.497C83.7734 107.662 83.832 107.855 83.832 108.053C83.8317 108.318 83.7262 108.572 83.5388 108.759C83.3513 108.947 83.0971 109.052 82.832 109.053Z" fill="black"/>
<path d="M39.832 106.053C40.3843 106.053 40.832 105.605 40.832 105.053C40.832 104.5 40.3843 104.053 39.832 104.053C39.2797 104.053 38.832 104.5 38.832 105.053C38.832 105.605 39.2797 106.053 39.832 106.053Z" fill="black"/>
<path d="M47.832 72.0527C46.052 72.0527 44.3119 72.5806 42.8319 73.5695C41.3519 74.5584 40.1983 75.964 39.5171 77.6086C38.8359 79.2531 38.6577 81.0627 39.005 82.8085C39.3522 84.5544 40.2094 86.158 41.4681 87.4167C42.7267 88.6753 44.3304 89.5325 46.0762 89.8798C47.8221 90.227 49.6317 90.0488 51.2762 89.3676C52.9207 88.6864 54.3263 87.5329 55.3153 86.0528C56.3042 84.5728 56.832 82.8327 56.832 81.0527C56.8294 78.6666 55.8803 76.3789 54.1931 74.6917C52.5058 73.0044 50.2182 72.0554 47.832 72.0527ZM47.832 88.0527C46.7112 88.0558 45.606 87.789 44.6101 87.2748C43.6141 86.7606 42.7566 86.0141 42.1101 85.0985C41.4636 84.1828 41.0471 83.125 40.8959 82.0143C40.7446 80.9037 40.863 79.773 41.241 78.7178C45.5921 77.8491 50.072 77.8491 54.423 78.7178C54.8011 79.773 54.9195 80.9037 54.7682 82.0143C54.6169 83.125 54.2004 84.1828 53.5539 85.0985C52.9074 86.0141 52.05 86.7606 51.054 87.2748C50.058 87.789 48.9529 88.0558 47.832 88.0527Z" fill="black"/>
<path d="M59.832 90.0527H57.832C57.0364 90.0527 56.2733 90.3688 55.7107 90.9314C55.1481 91.494 54.832 92.2571 54.832 93.0527C54.832 93.8484 55.1481 94.6114 55.7107 95.174C56.2733 95.7366 57.0364 96.0527 57.832 96.0527H59.832C60.6277 96.0527 61.3907 95.7366 61.9534 95.174C62.516 94.6114 62.832 93.8484 62.832 93.0527C62.832 92.2571 62.516 91.494 61.9534 90.9314C61.3907 90.3688 60.6277 90.0527 59.832 90.0527Z" fill="black"/>
<path d="M47.832 82.0527C48.3843 82.0527 48.832 81.605 48.832 81.0527C48.832 80.5004 48.3843 80.0527 47.832 80.0527C47.2797 80.0527 46.832 80.5004 46.832 81.0527C46.832 81.605 47.2797 82.0527 47.832 82.0527Z" fill="black"/>
<path d="M78.832 81.0527C78.832 79.2727 78.3042 77.5326 77.3153 76.0526C76.3263 74.5725 74.9207 73.419 73.2762 72.7378C71.6316 72.0566 69.8221 71.8784 68.0762 72.2256C66.3304 72.5729 64.7267 73.4301 63.4681 74.6888C62.2094 75.9474 61.3522 77.5511 61.005 79.2969C60.6577 81.0427 60.8359 82.8523 61.5171 84.4969C62.1983 86.1414 63.3519 87.547 64.8319 88.5359C66.3119 89.5249 68.052 90.0527 69.832 90.0527C72.2182 90.0501 74.5058 89.101 76.1931 87.4138C77.8803 85.7265 78.8294 83.4388 78.832 81.0527ZM69.832 88.0527C68.7112 88.0559 67.606 87.789 66.6101 87.2748C65.6141 86.7606 64.7566 86.0141 64.1101 85.0985C63.4636 84.1828 63.0471 83.125 62.8959 82.0143C62.7446 80.9037 62.863 79.773 63.241 78.7178C67.5921 77.8491 72.072 77.8491 76.423 78.7178C76.8011 79.773 76.9195 80.9037 76.7682 82.0143C76.6169 83.125 76.2004 84.1828 75.5539 85.0985C74.9074 86.0141 74.05 86.7606 73.054 87.2748C72.058 87.789 70.9529 88.0559 69.832 88.0527Z" fill="black"/>
<path d="M69.832 82.0527C70.3843 82.0527 70.832 81.605 70.832 81.0527C70.832 80.5004 70.3843 80.0527 69.832 80.0527C69.2797 80.0527 68.832 80.5004 68.832 81.0527C68.832 81.605 69.2797 82.0527 69.832 82.0527Z" fill="black"/>
<path d="M86.932 94.0576L81.2956 93.4939C81.5197 92.8996 81.718 92.2932 81.8951 91.6776L86.9564 91.0449C87.2169 91.009 87.4528 90.8718 87.613 90.6632C87.7731 90.4546 87.8446 90.1913 87.812 89.9303C87.7794 89.6693 87.6453 89.4317 87.4387 89.2689C87.2322 89.1061 86.9698 89.0312 86.7084 89.0605L82.3948 89.5997C83.1959 85.4649 82.8933 81.1921 81.5175 77.2115C80.1417 73.2309 77.7413 69.6831 74.558 66.9254C74.1307 64.023 73.1847 58.7789 71.664 56.498C71.5424 56.3153 71.3641 56.1778 71.1565 56.1066C70.949 56.0354 70.7237 56.0345 70.5156 56.104C70.1956 56.2108 67.5869 57.2252 65.5389 62.0199C61.1566 60.7584 56.5074 60.7584 52.1251 62.0199C50.0771 57.2252 47.4685 56.2108 47.1484 56.104C46.9403 56.0344 46.715 56.0352 46.5075 56.1064C46.2999 56.1777 46.1215 56.3153 46 56.498C44.479 58.7792 43.5329 64.0245 43.1057 66.9268L43.0913 66.935C39.9128 69.6938 37.5166 73.2408 36.1435 77.2193C34.7705 81.1978 34.4691 85.4677 35.2696 89.5997L30.956 89.0605C30.8249 89.0424 30.6914 89.0505 30.5634 89.0844C30.4354 89.1183 30.3155 89.1773 30.2104 89.2579C30.1054 89.3385 30.0174 89.4392 29.9516 89.5541C29.8858 89.6689 29.8435 89.7957 29.8271 89.9271C29.8106 90.0585 29.8205 90.1918 29.856 90.3194C29.8915 90.4469 29.952 90.5661 30.0339 90.6701C30.1159 90.7741 30.2177 90.8608 30.3334 90.9251C30.4491 90.9895 30.5764 91.0302 30.708 91.0449L35.7693 91.6776C35.9464 92.2932 36.1447 92.8996 36.3688 93.4939L30.732 94.0576C30.4696 94.0858 30.229 94.2167 30.0626 94.4216C29.8963 94.6265 29.8177 94.8889 29.844 95.1515C29.8702 95.4141 29.9993 95.6557 30.203 95.8235C30.4066 95.9914 30.6684 96.072 30.9312 96.0476L37.1899 95.4218C37.5226 96.1136 37.8871 96.7863 38.2834 97.4399L36.4805 98.116C36.3575 98.1621 36.2448 98.232 36.1489 98.3217C36.0529 98.4113 35.9755 98.519 35.9211 98.6386C35.8668 98.7581 35.8365 98.8872 35.832 99.0185C35.8276 99.1498 35.849 99.2806 35.8951 99.4036C35.9412 99.5266 36.0111 99.6393 36.1008 99.7353C36.1904 99.8312 36.2981 99.9086 36.4177 99.963C36.6591 100.073 36.9343 100.082 37.1827 99.989L39.4246 99.1483C41.6468 102.215 44.5641 104.712 47.9375 106.433C51.3109 108.155 55.0443 109.053 58.8316 109.053C62.6189 109.053 66.3523 108.155 69.7257 106.433C73.0991 104.712 76.0165 102.215 78.2386 99.1483L80.4805 99.989C80.6035 100.035 80.7344 100.057 80.8656 100.052C80.9969 100.048 81.126 100.017 81.2456 99.963C81.3651 99.9086 81.4728 99.8312 81.5625 99.7353C81.6521 99.6393 81.722 99.5266 81.7681 99.4036C81.8142 99.2806 81.8357 99.1498 81.8312 99.0185C81.8267 98.8872 81.7964 98.7581 81.7421 98.6386C81.6877 98.519 81.6103 98.4113 81.5144 98.3217C81.4184 98.232 81.3057 98.1621 81.1827 98.116L79.3798 97.4399C79.775 96.7866 80.1395 96.1139 80.4733 95.4218L86.732 96.0476C86.7662 96.051 86.7994 96.0525 86.8326 96.0525C87.089 96.0521 87.3354 95.9533 87.521 95.7765C87.7066 95.5997 87.8172 95.3583 87.8299 95.1023C87.8427 94.8462 87.7566 94.5951 87.5895 94.4007C87.4224 94.2063 87.1871 94.0835 86.932 94.0576ZM77.4688 96.7232L73.1835 95.1162C73.0605 95.0701 72.9297 95.0487 72.7984 95.0531C72.6671 95.0576 72.538 95.0879 72.4185 95.1422C72.2989 95.1966 72.1912 95.274 72.1016 95.37C72.0119 95.4659 71.942 95.5786 71.8959 95.7016C71.8028 95.95 71.8122 96.2252 71.9219 96.4667C72.0317 96.7081 72.2329 96.8961 72.4813 96.9892L76.2907 98.4177C74.2406 101.103 71.5989 103.278 68.5709 104.776C65.543 106.274 62.2105 107.053 58.8324 107.053C55.4544 107.053 52.1218 106.274 49.0939 104.776C46.066 103.278 43.4242 101.103 41.3741 98.4177L45.1835 96.9892C45.4319 96.8961 45.6331 96.7081 45.7429 96.4667C45.8527 96.2252 45.862 95.95 45.7689 95.7016C45.6758 95.4532 45.4878 95.252 45.2464 95.1422C45.0049 95.0325 44.7297 95.0231 44.4813 95.1162L40.196 96.7232C39.8866 96.2309 39.5966 95.7259 39.326 95.2084L40.932 95.0478C41.1944 95.0196 41.435 94.8887 41.6014 94.6838C41.7678 94.4789 41.8464 94.2166 41.8201 93.9539C41.7938 93.6913 41.6647 93.4497 41.4611 93.2819C41.2574 93.114 40.9956 93.0335 40.7328 93.0578L38.4373 93.2878C38.2594 92.8488 38.0956 92.403 37.9459 91.9503L46.7084 93.0456C46.7499 93.0506 46.7917 93.053 46.8335 93.0527C47.0877 93.0522 47.3322 92.9548 47.5172 92.7805C47.7022 92.6061 47.8139 92.3678 47.8295 92.1141C47.8451 91.8603 47.7635 91.6102 47.6012 91.4145C47.439 91.2188 47.2083 91.0922 46.956 91.0605L37.3679 89.862C36.5641 86.2919 36.6659 82.5775 37.6638 79.0568C38.6618 75.5361 40.5244 72.3208 43.082 69.7035C43.208 69.8515 43.3746 69.9592 43.5612 70.0134C43.7478 70.0675 43.9462 70.0658 44.1318 70.0083C44.3174 69.9508 44.4821 69.8401 44.6054 69.69C44.7287 69.5398 44.8053 69.3568 44.8256 69.1635C45.0692 66.974 45.9325 61.2406 47.2142 58.4364C48.1117 59.1205 49.6791 60.7564 50.8832 64.3695C50.9245 64.4943 50.99 64.6097 51.076 64.709C51.162 64.8084 51.2668 64.8898 51.3844 64.9486C51.5019 65.0073 51.6299 65.0423 51.761 65.0514C51.8921 65.0605 52.0237 65.0437 52.1483 65.0018C52.3692 64.9261 52.5561 64.7745 52.6757 64.5739C52.7953 64.3734 52.8399 64.137 52.8016 63.9066C56.7451 62.7962 60.9187 62.7962 64.8622 63.9066C64.8239 64.137 64.8685 64.3734 64.9881 64.5739C65.1078 64.7745 65.2946 64.9261 65.5155 65.0018C65.6401 65.0436 65.7717 65.0604 65.9028 65.0513C66.0339 65.0421 66.1618 65.0072 66.2794 64.9484C66.3969 64.8897 66.5017 64.8083 66.5877 64.7089C66.6737 64.6096 66.7393 64.4942 66.7806 64.3695C67.9867 60.7504 69.5575 59.1151 70.4491 58.4344C71.7308 61.2382 72.5941 66.9735 72.8382 69.1635C72.8653 69.4079 72.9814 69.6337 73.1644 69.7979C73.3474 69.9621 73.5845 70.0531 73.8304 70.0535C73.9736 70.0536 74.1151 70.0224 74.2449 69.962C74.3748 69.9017 74.4898 69.8136 74.582 69.704C77.1396 72.3214 79.0021 75.5367 80.0001 79.0575C80.998 82.5783 81.0998 86.2927 80.296 89.8628L70.708 91.0605C70.4558 91.0922 70.2251 91.2188 70.0628 91.4145C69.9006 91.6102 69.8189 91.8603 69.8345 92.1141C69.8501 92.3678 69.9618 92.6061 70.1468 92.7805C70.3318 92.9548 70.5763 93.0522 70.8305 93.0527C70.8725 93.0528 70.9144 93.0502 70.956 93.0449L79.7185 91.9496C79.5687 92.4021 79.4049 92.848 79.2271 93.2871L76.9316 93.0571C76.8004 93.043 76.6677 93.055 76.5412 93.0924C76.4147 93.1298 76.2968 93.1918 76.1944 93.275C76.0919 93.3582 76.007 93.4608 75.9444 93.5769C75.8818 93.6931 75.8428 93.8205 75.8296 93.9518C75.8165 94.0831 75.8294 94.2156 75.8678 94.3419C75.9061 94.4682 75.9691 94.5856 76.053 94.6874C76.1369 94.7892 76.2401 94.8734 76.3567 94.9352C76.4734 94.9969 76.601 95.0349 76.7324 95.0471L78.3381 95.2077C78.0677 95.7255 77.7782 96.2307 77.4688 96.7232Z" fill="black"/>
<path d="M135.64 57.2134C133.158 55.6124 131.587 56.3004 130.824 56.9214C129.969 56.3454 129.111 55.8624 128.26 55.5234C125.918 54.5894 122.111 54.0524 117.82 54.0524C113.527 54.0524 109.722 54.5894 107.379 55.5244C106.528 55.8634 105.668 56.3474 104.813 56.9234C104.048 56.3034 102.48 55.6194 99.9996 57.2184C94.6206 60.6824 83.0976 59.3094 89.9186 74.2414C91.0146 76.6384 91.8586 78.3324 92.5996 79.2744C92.5316 87.9344 95.3846 99.2724 101.05 102.954C107.793 107.336 113.034 110.052 118.32 110.052C123.604 110.052 128.846 107.336 135.588 102.953C141.334 99.2214 143.443 87.6794 143.127 79.1564C143.846 78.1954 144.668 76.5414 145.721 74.2364C152.541 59.3044 141.019 60.6774 135.64 57.2134ZM134.498 101.277C128.062 105.459 123.111 108.052 118.32 108.052C113.528 108.052 108.576 105.459 102.14 101.277C97.3426 98.1594 94.6996 87.8094 94.6186 79.8034C95.5096 79.0104 96.4696 76.8104 97.8316 73.0584C98.9406 70.0004 98.9016 67.6964 99.1806 65.6274C101.739 61.9544 105.077 58.5964 108.121 57.3814C110.204 56.5494 113.831 56.0524 117.82 56.0524C121.809 56.0524 125.434 56.5494 127.52 57.3814C130.565 58.5964 133.905 61.9564 136.461 65.6314C136.738 67.6974 136.701 70.0004 137.809 73.0534C139.262 77.0534 140.256 79.2894 141.198 79.9344C141.394 88.0284 139.22 98.2094 134.498 101.277Z" fill="black"/>
<path d="M110.069 80.7834C110.069 77.1924 107.153 74.2714 103.569 74.2714C99.9846 74.2714 97.0686 77.1924 97.0686 80.7834C97.0686 84.3754 99.9846 87.2974 103.569 87.2974C107.153 87.2974 110.069 84.3754 110.069 80.7834ZM99.4986 84.4794C100.251 85.0093 101.148 85.2937 102.069 85.2934C104.554 85.2934 106.569 83.2754 106.569 80.7834C106.57 79.5888 106.096 78.4426 105.252 77.5971C104.408 76.7515 103.263 76.2757 102.069 76.2744C101.111 76.2744 100.228 76.5794 99.4976 77.0904C100.011 76.5186 100.638 76.0612 101.34 75.7478C102.041 75.4344 102.8 75.2721 103.569 75.2714C106.601 75.2714 109.069 77.7444 109.069 80.7834C109.069 83.8234 106.601 86.2974 103.569 86.2974C102.801 86.2967 102.041 86.1345 101.34 85.8213C100.639 85.5081 100.012 85.0509 99.4986 84.4794Z" fill="black"/>
<path d="M132.07 74.2714C128.486 74.2714 125.57 77.1924 125.57 80.7834C125.57 84.3754 128.486 87.2974 132.07 87.2974C135.654 87.2974 138.57 84.3754 138.57 80.7834C138.57 77.1934 135.654 74.2714 132.07 74.2714ZM132.07 86.2974C129.039 86.2974 126.57 83.8234 126.57 80.7834C126.57 77.7444 129.039 75.2714 132.07 75.2714C133.685 75.2714 135.134 75.9764 136.142 77.0904C135.389 76.5597 134.491 76.2747 133.57 76.2744C132.375 76.2757 131.23 76.7515 130.386 77.5971C129.542 78.4426 129.069 79.5888 129.07 80.7834C129.069 81.375 129.185 81.9609 129.411 82.5078C129.636 83.0546 129.968 83.5516 130.386 83.9704C130.803 84.3892 131.3 84.7216 131.846 84.9486C132.392 85.1756 132.978 85.2927 133.57 85.2934C134.527 85.2934 135.412 84.9894 136.14 84.4794C135.627 85.051 134.999 85.5083 134.298 85.8215C133.597 86.1347 132.838 86.2969 132.07 86.2974Z" fill="black"/>
<path d="M126.875 84.8294C124.732 82.5984 121.432 81.3184 117.817 81.3184C114.205 81.3184 110.907 82.5974 108.77 84.8304L101.624 92.3094C99.4177 94.6184 99.4177 98.3734 101.624 100.684C102.698 101.807 104.13 102.426 105.655 102.426C106.899 102.425 108.107 102.002 109.081 101.227L111.798 104.072C113.226 105.559 115.421 106.411 117.821 106.411C120.22 106.411 122.413 105.558 123.837 104.071L126.558 101.225C127.531 102.002 128.739 102.425 129.984 102.426C131.509 102.426 132.941 101.807 134.017 100.683C136.22 98.3734 136.22 94.6184 134.017 92.3094L126.875 84.8294ZM123.115 103.379C121.881 104.67 119.949 105.41 117.822 105.41C115.692 105.41 113.759 104.67 112.521 103.38L109.818 100.549L112.484 97.7604L113.542 96.6554C113.066 98.0454 112.896 99.1924 113.047 100.068C113.52 102.829 115.785 104.064 117.82 104.064C119.856 104.064 122.121 102.829 122.594 100.069C122.744 99.1914 122.574 98.0444 122.098 96.6514L125.823 100.547L123.115 103.379ZM133.293 99.9924C132.868 100.444 132.355 100.805 131.786 101.051C131.217 101.298 130.604 101.426 129.984 101.426C128.847 101.426 127.781 100.985 126.927 100.209L126.874 100.16C126.809 100.102 126.742 100.046 126.673 99.9924L120.327 93.3534L119.528 92.5164C119.104 92.0744 118.483 91.8204 117.82 91.8204C117.157 91.8204 116.536 92.0744 116.114 92.5154L115.313 93.3534L108.894 100.052C108.849 100.088 108.805 100.124 108.763 100.162L108.713 100.209C107.86 100.984 106.794 101.426 105.655 101.426C104.405 101.426 103.23 100.916 102.347 99.9924C100.505 98.0634 100.505 94.9274 102.347 92.9994L109.493 85.5214C111.441 83.4864 114.476 82.3184 117.817 82.3184C121.16 82.3184 124.199 83.4864 126.152 85.5204L133.293 92.9994C135.134 94.9274 135.134 98.0654 133.293 99.9924Z" fill="black"/>
<path d="M117.82 82.5634C114.563 82.5634 111.922 83.0714 111.922 85.7064C111.922 87.8004 116.614 89.6574 117.82 89.6574C119.024 89.6574 123.719 87.8004 123.719 85.7064C123.718 83.0714 121.078 82.5634 117.82 82.5634Z" fill="black"/>
<path d="M111.133 89.0534L110.133 88.0514L109.133 89.0554L110.133 90.0574L111.133 89.0534Z" fill="black"/>
<path d="M107.752 92.8114L106.752 91.8114L107.753 90.8104L108.753 91.8104L107.752 92.8114Z" fill="black"/>
<path d="M109.883 92.8134L110.883 93.8154L111.883 92.8114L110.883 91.8094L109.883 92.8134Z" fill="black"/>
<path d="M124.506 89.0534L125.506 90.0574L126.506 89.0554L125.506 88.0514L124.506 89.0534Z" fill="black"/>
<path d="M127.887 92.8104L126.887 91.8084L127.887 90.8094L128.887 91.8124L127.887 92.8104Z" fill="black"/>
<path d="M123.756 92.8114L124.756 93.8154L125.756 92.8134L124.756 91.8094L123.756 92.8114Z" fill="black"/>
<path d="M26.9096 42.6956C24.7153 41.5288 23.8822 38.8041 25.049 36.6097C26.2158 34.4153 28.9405 33.5823 31.1349 34.749C33.3293 35.9158 34.1623 38.6406 32.9955 40.8349C31.8288 43.0293 29.104 43.8623 26.9096 42.6956Z" stroke="black" stroke-width="2" stroke-linecap="round" stroke-linejoin="round"/>
<path d="M17.0573 43.1198C15.5943 42.3419 15.039 40.5255 15.8168 39.0625C16.5947 37.5996 18.4112 37.0442 19.8741 37.8221C21.3371 38.6 21.8924 40.4164 21.1145 41.8794C20.3367 43.3423 18.5202 43.8977 17.0573 43.1198Z" stroke="black" stroke-width="2" stroke-linecap="round" stroke-linejoin="round"/>
<path d="M22.7124 49.5244C21.7371 49.0058 21.3669 47.7949 21.8855 46.8196C22.404 45.8443 23.615 45.474 24.5903 45.9926C25.5656 46.5112 25.9358 47.7222 25.4173 48.6975C24.8987 49.6728 23.6877 50.043 22.7124 49.5244Z" stroke="black" stroke-width="2" stroke-linecap="round" stroke-linejoin="round"/>
<path d="M98.3193 123.052C95.834 123.052 93.8193 121.038 93.8193 118.552C93.8193 116.067 95.834 114.052 98.3193 114.052C100.805 114.052 102.819 116.067 102.819 118.552C102.819 121.038 100.805 123.052 98.3193 123.052Z" stroke="black" stroke-width="2" stroke-linecap="round" stroke-linejoin="round"/>
<path d="M89.8193 128.052C88.1624 128.052 86.8193 126.709 86.8193 125.052C86.8193 123.395 88.1624 122.052 89.8193 122.052C91.4762 122.052 92.8193 123.395 92.8193 125.052C92.8193 126.709 91.4762 128.052 89.8193 128.052Z" stroke="black" stroke-width="2" stroke-linecap="round" stroke-linejoin="round"/>
<path d="M97.8193 131.052C96.7147 131.052 95.8193 130.157 95.8193 129.052C95.8193 127.948 96.7147 127.052 97.8193 127.052C98.9239 127.052 99.8193 127.948 99.8193 129.052C99.8193 130.157 98.9239 131.052 97.8193 131.052Z" stroke="black" stroke-width="2" stroke-linecap="round" stroke-linejoin="round"/>
<path d="M117.4 127.953C116.31 130.186 113.616 131.114 111.382 130.024C109.149 128.935 108.221 126.241 109.311 124.007C110.4 121.773 113.094 120.846 115.328 121.935C117.562 123.025 118.489 125.719 117.4 127.953Z" stroke="black" stroke-width="2" stroke-linecap="round" stroke-linejoin="round"/>
<path d="M118.167 137.784C117.441 139.273 115.645 139.892 114.156 139.165C112.667 138.439 112.048 136.643 112.775 135.154C113.501 133.665 115.297 133.046 116.786 133.773C118.275 134.499 118.894 136.295 118.167 137.784Z" stroke="black" stroke-width="2" stroke-linecap="round" stroke-linejoin="round"/>
<path d="M124.371 131.909C123.887 132.902 122.689 133.314 121.696 132.83C120.704 132.346 120.291 131.148 120.776 130.155C121.26 129.163 122.457 128.75 123.45 129.235C124.443 129.719 124.855 130.916 124.371 131.909Z" stroke="black" stroke-width="2" stroke-linecap="round" stroke-linejoin="round"/>
<path d="M61.2976 26.9305C63.6866 27.6155 65.068 30.1075 64.3829 32.4965C63.6979 34.8855 61.2059 36.2669 58.8169 35.5818C56.4279 34.8968 55.0465 32.4048 55.7316 30.0158C56.4166 27.6268 58.9086 26.2454 61.2976 26.9305Z" stroke="black" stroke-width="2" stroke-linecap="round" stroke-linejoin="round"/>
<path d="M70.8464 24.4671C72.4392 24.9238 73.36 26.5851 72.9033 28.1778C72.4466 29.7705 70.7853 30.6913 69.1926 30.2346C67.5999 29.7779 66.679 28.1167 67.1357 26.5239C67.5925 24.9312 69.2537 24.0104 70.8464 24.4671Z" stroke="black" stroke-width="2" stroke-linecap="round" stroke-linejoin="round"/>
<path d="M63.9833 19.3782C65.0451 19.6827 65.659 20.7902 65.3546 21.852C65.0501 22.9138 63.9426 23.5277 62.8808 23.2232C61.819 22.9188 61.2051 21.8112 61.5095 20.7494C61.814 19.6876 62.9215 19.0737 63.9833 19.3782Z" stroke="black" stroke-width="2" stroke-linecap="round" stroke-linejoin="round"/>
<path d="M138.622 120.232C136.2 119.673 134.69 117.256 135.249 114.835C135.808 112.413 138.224 110.903 140.646 111.462C143.068 112.021 144.578 114.438 144.018 116.859C143.459 119.281 141.043 120.791 138.622 120.232Z" stroke="black" stroke-width="2" stroke-linecap="round" stroke-linejoin="round"/>
<path d="M129.215 123.191C127.6 122.819 126.594 121.208 126.966 119.593C127.339 117.979 128.95 116.972 130.564 117.345C132.179 117.718 133.185 119.329 132.813 120.943C132.44 122.558 130.829 123.564 129.215 123.191Z" stroke="black" stroke-width="2" stroke-linecap="round" stroke-linejoin="round"/>
<path d="M136.335 127.914C135.259 127.666 134.587 126.592 134.836 125.515C135.084 124.439 136.158 123.768 137.235 124.017C138.311 124.265 138.982 125.339 138.733 126.415C138.485 127.492 137.411 128.163 136.335 127.914Z" stroke="black" stroke-width="2" stroke-linecap="round" stroke-linejoin="round"/>
<path d="M46.8193 48.5524C46.8193 46.0671 48.8341 44.0524 51.3193 44.0524C53.8046 44.0524 55.8193 46.0671 55.8193 48.5524C55.8193 51.0377 53.8046 53.0524 51.3193 53.0524C48.8341 53.0524 46.8193 51.0377 46.8193 48.5524Z" stroke="black" stroke-width="2" stroke-linecap="round" stroke-linejoin="round"/>
<path d="M41.8193 40.0524C41.8193 38.3955 43.1624 37.0524 44.8193 37.0524C46.4762 37.0524 47.8193 38.3955 47.8193 40.0524C47.8193 41.7093 46.4762 43.0524 44.8193 43.0524C43.1624 43.0524 41.8193 41.7093 41.8193 40.0524Z" stroke="black" stroke-width="2" stroke-linecap="round" stroke-linejoin="round"/>
<path d="M38.8193 48.0524C38.8193 46.9478 39.7147 46.0524 40.8193 46.0524C41.9239 46.0524 42.8193 46.9478 42.8193 48.0524C42.8193 49.157 41.9239 50.0524 40.8193 50.0524C39.7147 50.0524 38.8193 49.157 38.8193 48.0524Z" stroke="black" stroke-width="2" stroke-linecap="round" stroke-linejoin="round"/>
</svg>
